<?xml version="1.0" encoding="UTF-8" standalone="no"?>
<svg
   xmlns:dc="http://purl.org/dc/elements/1.1/"
   xmlns:cc="http://creativecommons.org/ns#"
   xmlns:rdf="http://www.w3.org/1999/02/22-rdf-syntax-ns#"
   xmlns:svg="http://www.w3.org/2000/svg"
   xmlns="http://www.w3.org/2000/svg"
   xmlns:sodipodi="http://sodipodi.sourceforge.net/DTD/sodipodi-0.dtd"
   xmlns:inkscape="http://www.inkscape.org/namespaces/inkscape"
   width="200mm"
   height="200mm"
   viewBox="0 0 200 200"
   version="1.1"
   id="svg4686"
   sodipodi:docname="bespoke.svg"
   inkscape:version="0.92.3 (2405546, 2018-03-11)">
  <metadata
     id="metadata4690">
    <rdf:RDF>
      <cc:Work
         rdf:about="">
        <dc:format>image/svg+xml</dc:format>
        <dc:type
           rdf:resource="http://purl.org/dc/dcmitype/StillImage" />
        <dc:title></dc:title>
      </cc:Work>
    </rdf:RDF>
  </metadata>
  <sodipodi:namedview
     pagecolor="#ffffff"
     bordercolor="#666666"
     borderopacity="1"
     objecttolerance="10"
     gridtolerance="10"
     guidetolerance="10"
     inkscape:pageopacity="0"
     inkscape:pageshadow="2"
     inkscape:window-width="1884"
     inkscape:window-height="1498"
     id="namedview4688"
     showgrid="false"
     inkscape:zoom="0.88305852"
     inkscape:cx="372.69273"
     inkscape:cy="368.52774"
     inkscape:window-x="0"
     inkscape:window-y="27"
     inkscape:window-maximized="0"
     inkscape:current-layer="svg4686" />
  <defs
     id="defs" />
  <path
     sodipodi:nodetypes="csccc"
     inkscape:connector-curvature="0"
     style="fill:none;stroke:#00ff00;stroke-width:1.94740462;stroke-linecap:butt;stroke-linejoin:miter;stroke-miterlimit:4;stroke-dasharray:none;stroke-opacity:1"
     d="m 64.407812,11.867 c 0,0 6.929528,38.12731 -7.166033,50.18846 0,0 -22.10072,11.90712 -29.60515,25.33225 C 14.139768,91.22495 1.3887633,64.49713 1.3887633,64.49713 11.568754,44.02145 27.276146,11.6358 64.407812,11.867 Z"
     id="left_arm" />
  <path
     inkscape:connector-curvature="0"
     style="fill:none;stroke:#00ff00;stroke-width:1.94740462;stroke-linecap:butt;stroke-linejoin:miter;stroke-miterlimit:4;stroke-dasharray:none;stroke-opacity:1"
     d="m 135.22871,11.86699 c 0,0 -6.92953,38.12732 7.16603,50.18847 L 171.9999,87.38771 198.24777,64.49713 C 184.47232,54.208578 182.54752,19.126325 135.22871,11.86699 Z"
     id="right_arm"
     sodipodi:nodetypes="csccc" />
  <path
     sodipodi:nodetypes="ccscccsccscc"
     inkscape:connector-curvature="0"
     style="fill:none;stroke:#0000ff;stroke-width:1.94740462;stroke-linecap:butt;stroke-linejoin:miter;stroke-miterlimit:4;stroke-dasharray:none;stroke-opacity:1"
     d="m 64.40781,11.867 15.252284,3.170177 c 0,0 0.573278,25.779033 20.079205,25.779033 19.505911,0 21.714131,-28.70684 21.714131,-28.70684 l 13.77528,-0.24238 c 0,0 -7.89001,36.08723 7.16603,50.18847 0,0 -4.40553,30.16368 -4.50971,45.35681 -0.16128,23.52296 6.01862,70.31343 6.01862,70.31343 0,0 -65.682288,22.55271 -88.328708,0 0,0 6.034984,-46.79956 5.769675,-70.31526 -0.168305,-14.91769 -4.665565,-44.51206 -4.665565,-44.51206 0,0 14.353411,-6.74137 7.728758,-51.03138 z"
     id="chest" />
</svg>
